<?xml version="1.0" encoding="iso-8859-1"?>
<!-- Generator: Adobe Illustrator 16.0.0, SVG Export Plug-In . SVG Version: 6.00 Build 0)  -->
<!DOCTYPE svg PUBLIC "-//W3C//DTD SVG 1.1//EN" "http://www.w3.org/Graphics/SVG/1.1/DTD/svg11.dtd">
<svg version="1.1" id="Capa_1" xmlns="http://www.w3.org/2000/svg" xmlns:xlink="http://www.w3.org/1999/xlink" x="0px" y="0px"
	 width="119.25px" height="119.25px" viewBox="0 0 119.25 119.25" style="fill:white;"
	 xml:space="preserve">
<g>
	<g>
		<path d="M117.25,23.75H2c-1.104,0-2,0.896-2,2V93.5c0,1.104,0.896,2,2,2h115.25c1.104,0,2-0.896,2-2V25.75
			C119.25,24.646,118.354,23.75,117.25,23.75z M48.139,82.893H6.852v-4.478h41.287V82.893z M48.139,71.893H6.852v-4.478h41.287
			V71.893z M112.398,82.893H54.465v-4.478h57.934V82.893L112.398,82.893z M112.398,71.893H54.465v-4.478h57.934V71.893
			L112.398,71.893z M114.625,57.625h-110V28.304h110V57.625z"/>
		<polygon points="39.944,44.433 42.64,44.433 42.64,42.483 39.944,42.483 39.944,40.767 42.867,40.767 42.867,38.815 
			37.551,38.815 37.551,47.812 39.944,47.812 		"/>
		<polygon points="49.734,45.849 46.27,45.849 46.27,38.815 43.84,38.815 43.84,47.812 49.734,47.812 		"/>
		<rect x="50.671" y="38.815" width="2.442" height="8.996"/>
		<path d="M58.571,47.935c1.264,0,2.423-0.181,3.477-0.541v-4.85h-3.883v1.877h1.606v1.409c-0.304,0.069-0.636,0.104-0.997,0.104
			c-0.66,0-1.166-0.221-1.517-0.661c-0.351-0.441-0.526-1.082-0.526-1.923c0-0.857,0.194-1.518,0.581-1.979
			c0.388-0.461,0.937-0.692,1.646-0.692c0.775,0,1.487,0.16,2.135,0.479l0.771-1.906c-0.373-0.165-0.812-0.301-1.313-0.406
			c-0.503-0.107-1.037-0.16-1.604-0.16c-1.493,0-2.653,0.404-3.482,1.212s-1.243,1.938-1.243,3.39c0,1.49,0.379,2.637,1.136,3.44
			S57.185,47.935,58.571,47.935z"/>
		<polygon points="65.82,44.144 68.646,44.144 68.646,47.812 71.088,47.812 71.088,38.815 68.646,38.815 68.646,42.15 65.82,42.15 
			65.82,38.815 63.378,38.815 63.378,47.812 65.82,47.812 		"/>
		<polygon points="74.066,47.812 76.497,47.812 76.497,40.803 78.688,40.803 78.688,38.815 71.869,38.815 71.869,40.803 
			74.066,40.803 		"/>
		<rect x="82.238" y="38.815" width="2.443" height="8.996"/>
		<path d="M88.275,43.757c0-0.525-0.039-1.287-0.116-2.283h0.056l3.285,6.338h3.188v-8.997h-2.166v4.067
			c0,0.55,0.029,1.278,0.088,2.185h-0.037l-3.273-6.252h-3.176v8.996h2.154v-4.054H88.275z"/>
		<polygon points="98.521,44.433 101.217,44.433 101.217,42.483 98.521,42.483 98.521,40.767 101.443,40.767 101.443,38.815 
			96.128,38.815 96.128,47.812 98.521,47.812 		"/>
		<path d="M106.46,47.935c1.433,0,2.519-0.395,3.261-1.182c0.743-0.787,1.114-1.938,1.114-3.451c0-1.519-0.369-2.669-1.106-3.453
			c-0.738-0.783-1.824-1.175-3.256-1.175c-1.428,0-2.516,0.396-3.265,1.185s-1.123,1.934-1.123,3.43
			c0,1.514,0.376,2.667,1.129,3.459C103.967,47.538,105.049,47.935,106.46,47.935z M106.473,40.667c0.6,0,1.049,0.215,1.352,0.644
			c0.301,0.429,0.451,1.093,0.451,1.991c0,0.894-0.147,1.552-0.445,1.975c-0.298,0.422-0.754,0.634-1.369,0.634
			c-1.21,0-1.814-0.87-1.814-2.608C104.645,41.546,105.254,40.667,106.473,40.667z"/>
		<path d="M14.024,45.622l5.843-1.49l0.139,4.416c0.012,0.072,0.008,0.33,0.008,0.33s-0.082,0.075-0.152,0.13l-0.916,0.708
			l-0.179,1.395c0.019-0.002,0.039-0.005,0.059-0.012l1.356-0.408c0.171-0.059,0.201-0.183,0.198-0.265
			c0.026,0.075,0.081,0.211,0.194,0.438c0,0,0.317,0.747,0.589,0.747h0.006c0.275,0,0.589-0.747,0.589-0.747
			c0.113-0.226,0.168-0.362,0.194-0.438c-0.004,0.082,0.027,0.206,0.198,0.265l1.356,0.408c0.02,0.007,0.04,0.01,0.059,0.012
			l-0.179-1.395l-0.916-0.708c-0.07-0.055-0.152-0.13-0.152-0.13s-0.004-0.258,0.008-0.33l0.139-4.416l5.843,1.49
			c0.158,0.04,0.269-0.058,0.248-0.219l-0.17-1.35c-0.021-0.162-0.158-0.344-0.306-0.41l-5.629-2.48l-0.125-4.397
			c-0.024-0.812-0.332-1.647-0.688-1.868c-0.135-0.084-0.3-0.127-0.469-0.137h-0.006c-0.169,0.01-0.334,0.053-0.469,0.137
			c-0.356,0.221-0.664,1.057-0.688,1.868l-0.125,4.397l-5.629,2.48c-0.147,0.066-0.285,0.248-0.306,0.41l-0.17,1.35
			C13.756,45.564,13.866,45.662,14.024,45.622z"/>
		<path d="M12.631,54.721H29.7c1.654,0,3-1.346,3-3v-17.07c0-1.654-1.346-3-3-3H12.631c-1.654,0-3,1.346-3,3V51.72
			C9.631,53.375,10.977,54.721,12.631,54.721z M11.631,34.651c0-0.551,0.448-1,1-1H29.7c0.552,0,1,0.449,1,1V51.72
			c0,0.552-0.448,1-1,1H12.631c-0.552,0-1-0.448-1-1V34.651z"/>
	</g>
</g>
<g>
</g>
<g>
</g>
<g>
</g>
<g>
</g>
<g>
</g>
<g>
</g>
<g>
</g>
<g>
</g>
<g>
</g>
<g>
</g>
<g>
</g>
<g>
</g>
<g>
</g>
<g>
</g>
<g>
</g>
</svg>
