<?xml version="1.0" encoding="iso-8859-1"?>
<!-- Generator: Adobe Illustrator 18.1.1, SVG Export Plug-In . SVG Version: 6.00 Build 0)  -->
<svg version="1.1" id="Capa_1" xmlns="http://www.w3.org/2000/svg" xmlns:xlink="http://www.w3.org/1999/xlink" x="0px" y="0px"
	 viewBox="0 0 17.613 17.613" style="enable-background:new 0 0 17.613 17.613;" xml:space="preserve">
<g>
	<g>
		<path style="fill:white;" d="M8.806,5.839c-1.716,0-3.111,1.396-3.111,3.112c0,0.537,0.137,1.043,0.377,1.485l4.219-4.219
			C9.849,5.976,9.344,5.839,8.806,5.839z"/>
		<path style="fill:white;" d="M7.322,11.685c0.442,0.24,0.948,0.377,1.485,0.377c1.716,0,3.112-1.396,3.112-3.111
			c0-0.537-0.138-1.043-0.378-1.484L7.322,11.685z"/>
		<path style="fill:white;" d="M15.955,4.295c-0.213-0.192-0.518-0.253-0.788-0.159c-0.004,0.002-1.042,0.145-1.042,0.145
			s-3.245-0.66-4.596-3.805C9.407,0.195,9.135,0.009,8.829,0C8.502-0.007,8.24,0.161,8.103,0.435C6.518,3.613,3.395,4.28,3.395,4.28
			l-0.92-0.133C2.202,4.038,1.891,4.09,1.67,4.282C1.447,4.474,1.351,4.774,1.419,5.059c0.499,2.096,3.2,12.554,7.389,12.554
			c4.188,0,6.888-10.458,7.387-12.554C16.261,4.78,16.168,4.488,15.955,4.295z M8.806,13.142c-2.311,0-4.191-1.881-4.191-4.191
			c0-2.311,1.88-4.191,4.191-4.191s4.191,1.88,4.191,4.191C12.997,11.261,11.118,13.142,8.806,13.142z"/>
	</g>
</g>
<g>
</g>
<g>
</g>
<g>
</g>
<g>
</g>
<g>
</g>
<g>
</g>
<g>
</g>
<g>
</g>
<g>
</g>
<g>
</g>
<g>
</g>
<g>
</g>
<g>
</g>
<g>
</g>
<g>
</g>
</svg>
