<?xml version="1.0" encoding="iso-8859-1"?>
<!-- Generator: Adobe Illustrator 19.0.0, SVG Export Plug-In . SVG Version: 6.00 Build 0)  -->
<svg version="1.1" id="Layer_1" xmlns="http://www.w3.org/2000/svg" xmlns:xlink="http://www.w3.org/1999/xlink" x="0px" y="0px"
	 viewBox="0 0 503.607 503.607" style="fill:white;" xml:space="preserve">
<g>
	<g>
		<g>
			<path d="M349.84,73.575c-4.116-4.116-9.701-6.429-15.52-6.429H169.287c-5.816,0-11.379,2.301-15.502,6.41
				c-15.522,15.522-15.522,15.522-40.114,40.114l-40.104,40.104c-4.117,4.117-6.42,9.685-6.42,15.512v245.223
				c0,12.116,9.828,21.949,21.949,21.949H414.51c12.123,0,21.949-9.767,21.949-21.89V169.261c0-5.824-2.309-11.376-6.428-15.495
				L349.84,73.575z M302.164,83.936v33.574H201.443V83.936H302.164z M419.672,414.568c0,2.829-2.288,5.103-5.162,5.103H89.096
				c-2.848,0-5.162-2.315-5.162-5.162V169.287c0-1.378,0.536-2.675,1.503-3.642l80.208-80.208c0.968-0.965,2.27-1.503,3.642-1.503
				h15.368v41.97c0,4.636,3.758,8.393,8.393,8.393h117.508c4.636,0,8.393-3.758,8.393-8.393v-41.97h15.368
				c1.368,0,2.683,0.544,3.65,1.512l80.191,80.191c0.977,0.977,1.512,2.262,1.512,3.625V414.568z"/>
			<path d="M335.738,201.444h-16.787v-25.18c0-4.636-3.758-8.393-8.393-8.393h-33.574c-4.636,0-8.393,3.758-8.393,8.393v25.18
				h-33.574v-25.18c0-4.636-3.758-8.393-8.393-8.393h-33.574c-4.636,0-8.393,3.758-8.393,8.393v25.18h-16.787
				c-4.636,0-8.393,3.758-8.393,8.393v117.508c0,4.636,3.758,8.393,8.393,8.393h16.787v25.18c0,4.636,3.758,8.393,8.393,8.393
				h33.574c4.636,0,8.393-3.758,8.393-8.393v-25.18h33.574v25.18c0,4.636,3.758,8.393,8.393,8.393h33.574
				c4.636,0,8.393-3.758,8.393-8.393v-25.18h16.787c4.636,0,8.393-3.758,8.393-8.393V209.838
				C344.131,205.202,340.373,201.444,335.738,201.444z M285.377,184.657h16.787v16.787h-16.787V184.657z M201.443,184.657h16.787
				v16.787h-16.787V184.657z M218.229,352.526h-16.787v-16.787h16.787V352.526z M302.164,352.526h-16.787v-16.787h16.787V352.526z
				 M327.344,318.952h-16.787h-33.574h-50.361h-33.574h-16.787V218.231h16.787h33.574h50.361h33.574h16.787V318.952z"/>
			<path d="M478.426,0H25.18C11.278,0,0,11.278,0,25.18v453.246c0,13.902,11.278,25.18,25.18,25.18h453.246
				c13.902,0,25.18-11.278,25.18-25.18V25.18C503.607,11.278,492.328,0,478.426,0z M486.82,478.426c0,4.631-3.763,8.393-8.393,8.393
				H25.18c-4.631,0-8.393-3.763-8.393-8.393V25.18c0-4.631,3.763-8.393,8.393-8.393h453.246c4.631,0,8.393,3.763,8.393,8.393
				V478.426z"/>
		</g>
	</g>
</g>
<g>
</g>
<g>
</g>
<g>
</g>
<g>
</g>
<g>
</g>
<g>
</g>
<g>
</g>
<g>
</g>
<g>
</g>
<g>
</g>
<g>
</g>
<g>
</g>
<g>
</g>
<g>
</g>
<g>
</g>
</svg>
